<?xml version="1.0" encoding="UTF-8"?>
<svg width="524px" height="524px" viewBox="0 0 524 524" version="1.1" xmlns="http://www.w3.org/2000/svg" xmlns:xlink="http://www.w3.org/1999/xlink">
    <!-- Generator: Sketch 49 (51002) - http://www.bohemiancoding.com/sketch -->
    <title>Database</title>
    <desc>Created with Sketch.</desc>
    <defs>
        <linearGradient x1="51.9413795%" y1="96.9575199%" x2="51.9413769%" y2="8.32667268e-15%" id="linearGradient-1">
            <stop stop-color="#3023AE" offset="0%"></stop>
            <stop stop-color="#C86DD7" offset="100%"></stop>
        </linearGradient>
    </defs>
    <g id="Database" stroke="none" stroke-width="1" fill="none" fill-rule="evenodd">
        <circle id="Oval" fill="url(#linearGradient-1)" cx="262" cy="262" r="262"></circle>
        <path d="M387,337.182917 L387,367.703083 C387,391.605167 329.04525,411 262.5,411 C195.9672,411 138,391.605167 138,367.703083 L138,337.182917 C168.1041,358.763083 225.21225,365.194917 262.5,365.194917 C299.9247,365.194917 356.9706,358.701 387,337.182917 Z M262.5,294.8545 C225.0753,294.8545 168.0294,288.360583 138,266.8425 L138,297.064667 C138,320.979167 195.9672,340.361583 262.5,340.361583 C329.04525,340.361583 387,320.96675 387,297.064667 L387,266.8425 C356.8959,288.422667 299.78775,294.8545 262.5,294.8545 Z M262.5,113 C195.9672,113 138,132.394833 138,156.309333 C138,180.223833 195.9672,199.60625 262.5,199.60625 C329.04525,199.60625 387,180.211417 387,156.309333 C387,132.394833 329.04525,113 262.5,113 Z M262.5,224.439583 C225.0753,224.439583 168.0294,217.945667 138,196.427583 L138,226.72425 C138,250.63875 195.9672,270.021167 262.5,270.021167 C329.04525,270.021167 387,250.626333 387,226.72425 L387,196.427583 C356.8959,218.00775 299.78775,224.439583 262.5,224.439583 Z" id="Shape" fill="#FFFFFF" fill-rule="nonzero"></path>
    </g>
</svg>